<svg id="Layer_1" data-name="Layer 1" xmlns="http://www.w3.org/2000/svg" viewBox="0 0 718.34 161.63"><defs><style>.cls-1{fill:#0e4bef;}.cls-2{fill:#f7fff4;}</style></defs><path class="cls-1" d="M344.62,489.57l3.49-16.49h12.34l5.28-24.68h22.9l-5.28,24.68h14.37l-3.49,16.49H379.86l-10,46.77q-1.14,5.45,0,6.78c.73.9,3.45,1.34,8.16,1.34.7,0,1.45,0,2.24,0l2.39-.12-3.73,17.3-11.05.4q-16.48.57-21.19-5.68-3-4-1.3-12.26L357,489.57Z" transform="translate(-140.83 -419.19)"/><path class="cls-1" d="M435.81,472.27l-11.29,53.35q-1.62,7.56-.65,11.37,1.71,6.74,11,6.74,11.87,0,18.28-9.58a40.07,40.07,0,0,0,5.19-13.72l10.23-48.16H492l-18.76,88.51H450.75l2.6-12.5c-.27.27-1,1.08-2.11,2.43a21.56,21.56,0,0,1-3.82,3.58,42.42,42.42,0,0,1-12,6.66,39.58,39.58,0,0,1-12.3,1.78q-19.65,0-23.47-14.13-2.1-7.79,1.14-23l11.29-53.35Z" transform="translate(-140.83 -419.19)"/><path class="cls-1" d="M501.58,489.57l3.5-16.49h12.34l5.28-24.68h22.9l-5.28,24.68h14.37l-3.49,16.49H536.83l-10,46.77q-1.14,5.45,0,6.78c.73.9,3.45,1.34,8.16,1.34.7,0,1.45,0,2.23,0l2.4-.12-3.74,17.3-11,.4q-16.48.57-21.2-5.68-3-4-1.3-12.26l11.62-54.49Z" transform="translate(-140.83 -419.19)"/><path class="cls-1" d="M590,563.87q-22.83,0-31.07-13.85t-4.1-33.33a64.67,64.67,0,0,1,18.27-33.21q14.22-14.06,37-14.05t31,14.05q8.21,14,4.14,33.21A64.22,64.22,0,0,1,627,550Q612.84,563.87,590,563.87Zm31-47.18q2.85-13.32-1.09-20.5T605.85,489a22.91,22.91,0,0,0-17.13,7.19q-7,7.19-9.83,20.5t1.1,20.54q3.93,7.23,14.08,7.23a22.91,22.91,0,0,0,17.14-7.23Q618.18,530,621,516.69Z" transform="translate(-140.83 -419.19)"/><path class="cls-1" d="M722.86,470.32l-5,23.71c-1.41-.16-2.68-.27-3.82-.32s-2.06-.08-2.76-.08q-14,0-20.7,9.09-3.75,5.11-6,15.76l-8.94,42.3H652.3l18.76-88.51h22.08L689.9,487.7q7.22-8.85,11.85-12.1a30.66,30.66,0,0,1,18.11-5.44c.43,0,.8,0,1.1,0S721.89,470.27,722.86,470.32Z" transform="translate(-140.83 -419.19)"/><path class="cls-1" d="M736.34,472.27h23.47l-18.76,88.51H717.59Zm25.74-10.55H738.62l4.54-21.36h23.47Z" transform="translate(-140.83 -419.19)"/><path class="cls-1" d="M802.52,563.87q-22.82,0-31.06-13.85t-4.1-33.33a64.67,64.67,0,0,1,18.27-33.21q14.22-14.06,37-14.05t31,14.05q8.21,14,4.14,33.21A64.22,64.22,0,0,1,839.51,550Q825.33,563.87,802.52,563.87Zm31-47.18q2.85-13.32-1.09-20.5T818.36,489a22.91,22.91,0,0,0-17.13,7.19q-7,7.19-9.83,20.5t1.1,20.54q3.93,7.23,14.08,7.23a22.91,22.91,0,0,0,17.14-7.23Q830.7,530,833.54,516.69Z" transform="translate(-140.83 -419.19)"/><circle class="cls-1" cx="80.81" cy="80.81" r="80.81"/><path class="cls-2" d="M178.59,489.68l3.51-16.59h12.43l5.31-24.85h23l-5.31,24.85h14.47l-3.52,16.59H214.06L204,536.76c-.76,3.65-.78,5.93,0,6.83s3.47,1.35,8.21,1.35c.71,0,1.46,0,2.25,0s1.6-.07,2.41-.13l-3.76,17.41-11.11.41q-16.6.57-21.34-5.72-3-4-1.3-12.34L191,489.68Z" transform="translate(-140.83 -419.19)"/><circle class="cls-2" cx="118.04" cy="63.16" r="17.58"/><rect class="cls-1" x="20.7" y="95" width="128.57" height="10.26"/></svg>